HIERARCHY
ROOT Hips
{
	OFFSET 0.000000 83.214638 0.000000
	CHANNELS 6 Xposition Yposition Zposition Xrotation Yrotation Zrotation
	JOINT Pelvis
	{
		OFFSET 0.000000 0.000000 0.000000
		CHANNELS 3 Xrotation Yrotation Zrotation
		JOINT LeftUpLeg
		{
			OFFSET 8.479700 -4.795502 -0.379100
			CHANNELS 3 Xrotation Yrotation Zrotation
			JOINT LeftLeg
			{
				OFFSET 0.024144 -32.555107 0.112900
				CHANNELS 3 Xrotation Yrotation Zrotation
				JOINT LeftFoot
				{
					OFFSET -0.024144 -32.638630 -3.012600
					CHANNELS 3 Xrotation Yrotation Zrotation
					JOINT LeftToeBase
					{
						OFFSET 0.970200 -13.225400 11.864200
						CHANNELS 3 Xrotation Yrotation Zrotation
						End Site
						{
							OFFSET 0.000000 12.319262 0.000000
						}
					}
					JOINT LFootTongue
					{
						OFFSET 1.142400 -1.059800 6.665200
						CHANNELS 3 Xrotation Yrotation Zrotation
						End Site
						{
							OFFSET 0.000000 12.319262 0.000000
						}
					}
				}
				JOINT LeftPantLeg
				{
					OFFSET 0.918482 -16.533964 -2.284700
					CHANNELS 3 Xrotation Yrotation Zrotation
					End Site
					{
						OFFSET 0.350399 24.744368 0.000000
					}
				}
			}
		}
		JOINT RightUpLeg
		{
			OFFSET -8.479700 -4.795502 -0.379100
			CHANNELS 3 Xrotation Yrotation Zrotation
			JOINT RightLeg
			{
				OFFSET -0.023144 -32.555092 0.112900
				CHANNELS 3 Xrotation Yrotation Zrotation
				JOINT RightFoot
				{
					OFFSET 0.023144 -32.638641 -3.012700
					CHANNELS 3 Xrotation Yrotation Zrotation
					JOINT RightToeBase
					{
						OFFSET -0.970200 -13.225400 11.864200
						CHANNELS 3 Xrotation Yrotation Zrotation
						End Site
						{
							OFFSET 0.000000 12.319244 0.000000
						}
					}
					JOINT RFootTongue
					{
						OFFSET -1.142200 -1.059800 6.665200
						CHANNELS 3 Xrotation Yrotation Zrotation
						End Site
						{
							OFFSET 0.000000 12.319243 0.000000
						}
					}
				}
				JOINT RightPantLeg
				{
					OFFSET -0.919482 -16.533978 -2.284800
					CHANNELS 3 Xrotation Yrotation Zrotation
					End Site
					{
						OFFSET -0.350400 24.744419 0.000000
					}
				}
			}
		}
	}
	JOINT Spine
	{
		OFFSET 0.000000 7.722000 1.166200
		CHANNELS 3 Xrotation Yrotation Zrotation
		JOINT Spine1
		{
			OFFSET 0.000000 12.024101 0.248800
			CHANNELS 3 Xrotation Yrotation Zrotation
			JOINT Spine2
			{
				OFFSET 0.000000 11.502998 -0.491200
				CHANNELS 3 Xrotation Yrotation Zrotation
				JOINT Neck
				{
					OFFSET 0.000000 18.430702 -3.123100
					CHANNELS 3 Xrotation Yrotation Zrotation
					JOINT Head
					{
						OFFSET 0.000000 9.051102 1.034000
						CHANNELS 3 Xrotation Yrotation Zrotation
						JOINT HairB
						{
							OFFSET 0.208400 24.786102 24.822300
							CHANNELS 3 Xrotation Yrotation Zrotation
							End Site
							{
								OFFSET 0.000000 32.263779 0.000000
							}
						}
						JOINT HairA
						{
							OFFSET -7.081100 24.428299 23.196600
							CHANNELS 3 Xrotation Yrotation Zrotation
							End Site
							{
								OFFSET 0.000000 32.263779 0.000000
							}
						}
						JOINT Hat
						{
							OFFSET 16.728800 15.048294 -15.439601
							CHANNELS 3 Xrotation Yrotation Zrotation
							End Site
							{
								OFFSET 0.000000 32.263779 0.000000
							}
						}
					}
				}
				JOINT LeftShoulder
				{
					OFFSET 6.197800 13.665199 -4.064700
					CHANNELS 3 Xrotation Yrotation Zrotation
					JOINT LeftArm
					{
						OFFSET 7.778100 -0.187103 -1.709300
						CHANNELS 3 Xrotation Yrotation Zrotation
						JOINT LeftForeArm
						{
							OFFSET 22.049376 0.000000 0.000000
							CHANNELS 3 Xrotation Yrotation Zrotation
							JOINT LeftHand
							{
								OFFSET 23.009392 0.000000 0.000000
								CHANNELS 3 Xrotation Yrotation Zrotation
								JOINT LeftHandThumb1
								{
									OFFSET 3.507191 -2.063065 3.133727
									CHANNELS 3 Xrotation Yrotation Zrotation
									JOINT LeftHandThumb2
									{
										OFFSET 3.101337 -1.790558 1.790558
										CHANNELS 3 Xrotation Yrotation Zrotation
										JOINT LeftHandThumb3
										{
											OFFSET 3.058640 -1.765907 1.765906
											CHANNELS 3 Xrotation Yrotation Zrotation
											End Site
											{
												OFFSET -0.415260 3.926476 -0.049563
											}
										}
									}
								}
								JOINT LeftHandIndex1
								{
									OFFSET 11.334419 -0.901459 3.706815
									CHANNELS 3 Xrotation Yrotation Zrotation
									JOINT LeftHandIndex2
									{
										OFFSET 3.283112 0.000000 0.000000
										CHANNELS 3 Xrotation Yrotation Zrotation
										JOINT LeftHandIndex3
										{
											OFFSET 3.323853 0.000000 0.000000
											CHANNELS 3 Xrotation Yrotation Zrotation
											End Site
											{
												OFFSET -1.135597 3.097809 0.402452
											}
										}
									}
								}
								JOINT LeftHandMiddle1
								{
									OFFSET 11.335861 0.000000 0.000000
									CHANNELS 3 Xrotation Yrotation Zrotation
									JOINT LeftHandMiddle2
									{
										OFFSET 3.410492 0.000000 0.000000
										CHANNELS 3 Xrotation Yrotation Zrotation
										JOINT LeftHandMiddle3
										{
											OFFSET 3.312172 0.000000 0.000000
											CHANNELS 3 Xrotation Yrotation Zrotation
											End Site
											{
												OFFSET -1.150200 3.080154 0.400270
											}
										}
									}
								}
								JOINT LeftHandRing1
								{
									OFFSET 11.514786 -0.013176 -3.003090
									CHANNELS 3 Xrotation Yrotation Zrotation
									JOINT LeftHandRing2
									{
										OFFSET 3.053307 0.000000 0.000000
										CHANNELS 3 Xrotation Yrotation Zrotation
										JOINT LeftHandRing3
										{
											OFFSET 3.295807 0.000000 0.000000
											CHANNELS 3 Xrotation Yrotation Zrotation
											End Site
											{
												OFFSET -1.281006 3.013344 0.375733
											}
										}
									}
								}
								JOINT LeftHandPinky1
								{
									OFFSET 10.518692 -0.960396 -5.730441
									CHANNELS 3 Xrotation Yrotation Zrotation
									JOINT LeftHandPinky2
									{
										OFFSET 2.861649 0.000000 0.000000
										CHANNELS 3 Xrotation Yrotation Zrotation
										JOINT LeftHandPinky3
										{
											OFFSET 2.863380 0.000000 0.000000
											CHANNELS 3 Xrotation Yrotation Zrotation
											End Site
											{
												OFFSET -0.843597 2.711159 0.369971
											}
										}
									}
								}
							}
							JOINT LSleeve
							{
								OFFSET 6.676277 -0.344902 -1.011730
								CHANNELS 3 Xrotation Yrotation Zrotation
								End Site
								{
									OFFSET 0.000000 14.885353 0.000000
								}
							}
						}
					}
				}
				JOINT RightShoulder
				{
					OFFSET -6.197800 13.665199 -4.064700
					CHANNELS 3 Xrotation Yrotation Zrotation
					JOINT RightArm
					{
						OFFSET -7.778100 -0.187103 -1.709300
						CHANNELS 3 Xrotation Yrotation Zrotation
						JOINT RightForeArm
						{
							OFFSET -22.049376 0.000000 0.000000
							CHANNELS 3 Xrotation Yrotation Zrotation
							JOINT RightHand
							{
								OFFSET -23.009392 0.000000 0.000000
								CHANNELS 3 Xrotation Yrotation Zrotation
								JOINT RightHandThumb1
								{
									OFFSET -3.507191 -2.063065 3.133727
									CHANNELS 3 Xrotation Yrotation Zrotation
									JOINT RightHandThumb2
									{
										OFFSET -3.101337 -1.790558 1.790558
										CHANNELS 3 Xrotation Yrotation Zrotation
										JOINT RightHandThumb3
										{
											OFFSET -3.058640 -1.765907 1.765906
											CHANNELS 3 Xrotation Yrotation Zrotation
											End Site
											{
												OFFSET 0.415260 3.926476 -0.049563
											}
										}
									}
								}
								JOINT RightHandIndex1
								{
									OFFSET -11.334419 -0.901459 3.706815
									CHANNELS 3 Xrotation Yrotation Zrotation
									JOINT RightHandIndex2
									{
										OFFSET -3.283112 0.000000 0.000000
										CHANNELS 3 Xrotation Yrotation Zrotation
										JOINT RightHandIndex3
										{
											OFFSET -3.323853 0.000000 0.000000
											CHANNELS 3 Xrotation Yrotation Zrotation
											End Site
											{
												OFFSET 1.135597 3.097809 0.402452
											}
										}
									}
								}
								JOINT RightHandMiddle1
								{
									OFFSET -11.335861 0.000000 0.000000
									CHANNELS 3 Xrotation Yrotation Zrotation
									JOINT RightHandMiddle2
									{
										OFFSET -3.410492 0.000000 0.000000
										CHANNELS 3 Xrotation Yrotation Zrotation
										JOINT RightHandMiddle3
										{
											OFFSET -3.312172 0.000000 0.000000
											CHANNELS 3 Xrotation Yrotation Zrotation
											End Site
											{
												OFFSET 1.150200 3.080154 0.400270
											}
										}
									}
								}
								JOINT RightHandRing1
								{
									OFFSET -11.514786 -0.013176 -3.003090
									CHANNELS 3 Xrotation Yrotation Zrotation
									JOINT RightHandRing2
									{
										OFFSET -3.053307 0.000000 0.000000
										CHANNELS 3 Xrotation Yrotation Zrotation
										JOINT RightHandRing3
										{
											OFFSET -3.295807 0.000000 0.000000
											CHANNELS 3 Xrotation Yrotation Zrotation
											End Site
											{
												OFFSET 1.281006 3.013344 0.375733
											}
										}
									}
								}
								JOINT RightHandPinky1
								{
									OFFSET -10.518692 -0.960396 -5.730441
									CHANNELS 3 Xrotation Yrotation Zrotation
									JOINT RightHandPinky2
									{
										OFFSET -2.861649 0.000000 0.000000
										CHANNELS 3 Xrotation Yrotation Zrotation
										JOINT RightHandPinky3
										{
											OFFSET -2.863380 0.000000 0.000000
											CHANNELS 3 Xrotation Yrotation Zrotation
											End Site
											{
												OFFSET 0.843597 2.711159 0.369971
											}
										}
									}
								}
							}
							JOINT RSleeve
							{
								OFFSET -6.676277 -0.344902 -1.011730
								CHANNELS 3 Xrotation Yrotation Zrotation
								End Site
								{
									OFFSET 0.000000 14.885353 0.000000
								}
							}
						}
					}
				}
				JOINT Backpack
				{
					OFFSET 0.000000 -2.471497 36.677502
					CHANNELS 3 Xrotation Yrotation Zrotation
					End Site
					{
						OFFSET 0.000000 20.427315 0.000000
					}
				}
				JOINT Hood
				{
					OFFSET 0.000000 18.754097 -10.431000
					CHANNELS 3 Xrotation Yrotation Zrotation
					JOINT Hood1
					{
						OFFSET 0.000000 -5.011002 -7.685901
						CHANNELS 3 Xrotation Yrotation Zrotation
						End Site
						{
							OFFSET 0.000000 9.175140 0.000000
						}
					}
				}
				JOINT LHoodieString
				{
					OFFSET 5.250500 16.397697 3.089900
					CHANNELS 3 Xrotation Yrotation Zrotation
					JOINT LHoodieString1
					{
						OFFSET 0.257700 -6.364304 3.694600
						CHANNELS 3 Xrotation Yrotation Zrotation
						JOINT LHoodieString2
						{
							OFFSET 0.000000 -9.643799 2.679100
							CHANNELS 3 Xrotation Yrotation Zrotation
							End Site
							{
								OFFSET 0.000000 10.009018 0.000000
							}
						}
					}
				}
				JOINT RHoodieString
				{
					OFFSET -5.250500 16.397697 3.089900
					CHANNELS 3 Xrotation Yrotation Zrotation
					JOINT RHoodieString1
					{
						OFFSET -0.257700 -6.364304 3.694600
						CHANNELS 3 Xrotation Yrotation Zrotation
						JOINT RHoodieString2
						{
							OFFSET 0.000000 -9.643799 2.679100
							CHANNELS 3 Xrotation Yrotation Zrotation
							End Site
							{
								OFFSET 0.000000 10.009018 0.000000
							}
						}
					}
				}
			}
			JOINT LBackpack_Strap
			{
				OFFSET 15.223200 -7.719803 -6.610900
				CHANNELS 3 Xrotation Yrotation Zrotation
				End Site
				{
					OFFSET 0.000000 16.040596 0.000000
				}
			}
			JOINT RBackpack_Strap
			{
				OFFSET -15.223000 -7.719803 -6.610900
				CHANNELS 3 Xrotation Yrotation Zrotation
				End Site
				{
					OFFSET 0.000000 16.040596 0.000000
				}
			}
		}
	}
	JOINT BoyFacialAnim_Joint
	{
		OFFSET 1.000000 -82.208099 -1.550900
		CHANNELS 3 Xrotation Yrotation Zrotation
		End Site
		{
			OFFSET 0.000000 30.012791 0.000000
		}
	}
}
MOTION
Frames: 4
Frame Time: 0.016667
-0.968454 48.717529 0.541204 0.360035 -175.367894 -9.069438 0.000000 0.000001 -0.000001 -80.933329 -12.359425 13.865400 115.615732 8.239174 3.485640 -31.777008 4.182233 -12.527478 -0.000000 -0.000000 0.000000 -0.000000 -0.000000 0.000000 -0.000001 -0.000001 -0.000001 -61.176030 10.942232 -24.637233 105.580019 0.136160 -0.866781 -26.345986 -8.219803 27.411718 0.000000 0.000003 0.000000 0.000000 0.000003 0.000000 -0.000002 -0.000001 -0.000001 3.990958 3.639429 -2.153967 8.138436 6.853473 -4.615304 8.138448 6.853473 -4.615312 -3.924079 28.385120 6.948707 6.044267 35.632725 -22.310171 -0.000002 0.000000 -0.000000 -0.000002 0.000000 -0.000000 -0.000002 0.000000 -0.000000 0.991959 -15.521566 -11.873504 2.947326 -1.004904 -32.103788 39.921943 -32.872591 -2.089479 12.741849 10.294098 2.732616 -10.171823 -9.655306 9.007714 2.321125 6.714507 2.170927 -0.000003 0.000001 0.000002 -0.823930 -6.584362 -6.418257 -0.126834 0.207656 -21.714391 0.000000 0.000000 -0.000000 1.294490 -1.113037 -9.321274 -0.178459 -0.773441 -14.430108 -0.000001 0.000000 -0.000002 -0.565340 2.847724 -6.302103 -0.505473 -2.597484 -30.199511 0.000003 -0.000000 -0.000000 -0.248818 5.894612 -1.054401 -0.699249 -5.770476 -39.699320 0.000002 0.000002 -0.000003 0.000001 0.000000 -0.000000 3.297407 -18.314896 12.160854 12.768039 -13.236291 60.187060 30.213099 39.380169 -4.024304 19.052420 -1.510668 11.776091 -7.035196 1.739462 -10.279208 -0.642359 -0.093881 -1.289344 -0.000001 0.000001 0.000004 -3.340361 2.507662 5.478426 0.120543 -1.119644 16.859796 0.000001 0.000002 0.000000 -0.189051 -1.324958 0.979406 -0.357891 1.142256 22.116007 -0.000003 0.000003 0.000000 1.946045 0.242700 1.015184 -0.619904 3.110108 28.344740 0.000001 0.000000 -0.000001 4.839318 -1.854574 -3.962226 -1.320417 7.677249 37.620187 -0.000000 -0.000000 0.000000 -0.000000 -0.000001 -0.000002 0.000000 -0.000001 0.000001 0.000000 -0.000001 0.000001 0.000000 -0.000001 0.000001 0.000000 -0.000001 0.000001 0.000000 -0.000001 -0.000001 -0.000001 0.000002 -0.000002 0.000000 -0.000001 0.000001 0.000000 -0.000001 -0.000001 -0.000001 0.000002 -0.000002 0.000002 -0.000001 -0.000001 0.000002 -0.000001 -0.000001 0.000000 0.000001 -0.000001 
-0.971675 48.719353 0.538337 0.329525 -175.353796 -9.085199 0.000000 -0.000000 0.000001 -80.968396 -12.368877 13.846633 115.615363 8.243296 3.485703 -31.775795 4.180118 -12.522143 0.000000 -0.000000 0.000000 0.000000 -0.000000 -0.000000 -0.000001 -0.000000 -0.000000 -61.185012 10.932906 -24.638027 105.572042 0.124857 -0.862892 -26.348896 -8.221619 27.412985 0.000000 -0.000000 0.000000 0.000000 -0.000000 0.000000 -0.000001 -0.000000 0.000001 3.979388 3.639751 -2.152075 8.115214 6.854065 -4.611585 8.115216 6.854063 -4.611584 -3.893994 28.384584 6.949296 6.058528 35.625946 -22.329910 0.000001 0.000000 -0.000000 0.000001 0.000000 -0.000000 0.000001 0.000000 -0.000000 0.983008 -15.541320 -11.895351 2.965900 -0.975594 -32.060894 39.955575 -32.910587 -2.104581 12.745299 10.287327 2.740126 -10.172284 -9.653907 9.008301 2.321130 6.714507 2.170928 -0.000004 0.000002 0.000002 -0.828619 -6.612131 -6.414577 -0.126836 0.207657 -21.714391 -0.000003 0.000000 -0.000002 1.294506 -1.112997 -9.320915 -0.178457 -0.773442 -14.430107 0.000002 -0.000000 -0.000000 -0.564473 2.847580 -6.300945 -0.505470 -2.597485 -30.199511 -0.000000 0.000001 -0.000000 -0.248478 5.894474 -1.053928 -0.699249 -5.770478 -39.699310 -0.000002 0.000003 0.000000 0.000000 -0.000000 0.000001 3.299767 -18.344990 12.110433 12.768937 -13.198105 60.241401 30.218266 39.297606 -4.016868 19.086221 -1.501093 11.733836 -7.041346 1.762643 -10.274671 -0.642356 -0.093880 -1.289340 0.000000 0.000002 0.000003 -3.280164 2.555627 5.448245 0.120535 -1.119646 16.859801 0.000002 -0.000002 0.000003 -0.085940 -1.307459 0.995292 -0.357883 1.142256 22.116009 -0.000002 0.000001 0.000000 1.946336 0.242918 1.016107 -0.619907 3.110105 28.344737 -0.000000 -0.000000 0.000000 4.839136 -1.854393 -3.961754 -1.320425 7.677253 37.620190 0.000001 0.000000 0.000000 0.000003 -0.000002 -0.000000 0.000002 0.000002 -0.000000 0.000002 0.000002 -0.000000 0.000002 0.000002 -0.000000 0.000002 0.000002 -0.000000 0.000002 0.000002 -0.000000 0.000001 0.000000 0.000000 0.000002 0.000002 -0.000000 0.000002 0.000002 -0.000000 0.000001 0.000000 0.000000 -0.000000 0.000000 -0.000001 -0.000000 0.000000 -0.000001 0.000000 -0.000000 0.000001 
-0.971084 48.720375 0.534142 0.304531 -175.358222 -9.095934 0.000000 -0.000000 -0.000000 -80.992554 -12.371072 13.864260 115.617276 8.229984 3.484719 -31.782643 4.174106 -12.510401 -0.000000 -0.000000 0.000000 -0.000000 -0.000000 0.000000 -0.000000 0.000000 -0.000001 -61.202511 10.929386 -24.619197 105.573339 0.111593 -0.858805 -26.361088 -8.224169 27.411532 -0.000001 0.000000 -0.000000 -0.000001 0.000000 -0.000000 -0.000001 0.000001 -0.000000 3.968517 3.639614 -2.153986 8.093580 6.853829 -4.615531 8.093581 6.853823 -4.615527 -3.941501 28.376347 6.975597 6.129568 35.633295 -22.332424 0.000001 -0.000000 0.000000 0.000001 -0.000000 0.000000 0.000001 -0.000000 0.000000 0.984357 -15.557361 -11.893241 2.993947 -0.936732 -32.027795 39.996994 -32.956004 -2.104851 12.752487 10.324086 2.750439 -10.172755 -9.652539 9.008909 2.321124 6.714508 2.170925 -0.000008 -0.000000 -0.000001 -0.833437 -6.640641 -6.410815 -0.126838 0.207656 -21.714389 0.000002 0.000001 -0.000003 1.294511 -1.112964 -9.320533 -0.178461 -0.773442 -14.430110 -0.000001 -0.000001 0.000002 -0.563575 2.847406 -6.299824 -0.505471 -2.597484 -30.199511 0.000001 0.000003 -0.000002 -0.248196 5.893923 -1.053440 -0.699251 -5.770476 -39.699310 0.000001 0.000001 -0.000002 0.000001 -0.000000 -0.000000 3.302529 -18.350060 12.097408 12.769798 -13.185354 60.268449 30.241328 39.257052 -4.029740 19.125786 -1.494299 11.725366 -7.048402 1.789095 -10.269478 -0.642355 -0.093882 -1.289345 0.000000 0.000003 0.000001 -3.217552 2.602799 5.419786 0.120542 -1.119644 16.859796 0.000000 -0.000001 0.000002 0.019118 -1.289084 1.011200 -0.357879 1.142255 22.116009 -0.000003 -0.000001 0.000001 1.946595 0.243118 1.016879 -0.619905 3.110108 28.344737 -0.000001 -0.000002 0.000000 4.838927 -1.854193 -3.961328 -1.320422 7.677253 37.620190 -0.000000 -0.000000 0.000000 -0.000002 -0.000001 0.000000 0.000000 -0.000002 0.000004 0.000000 -0.000002 0.000004 0.000000 -0.000002 0.000004 0.000000 -0.000002 0.000004 0.000000 -0.000002 0.000002 -0.000001 0.000001 -0.000000 0.000000 -0.000002 0.000004 0.000000 -0.000002 0.000002 -0.000001 0.000001 -0.000000 0.000000 -0.000001 -0.000000 0.000000 -0.000001 -0.000000 0.000000 -0.000000 -0.000000 
-0.971710 48.718300 0.529695 0.278843 -175.350203 -9.112149 -0.000000 0.000000 0.000001 -81.029621 -12.372156 13.882329 115.626169 8.206574 3.483152 -31.790876 4.159974 -12.483403 0.000000 0.000002 -0.000000 0.000000 0.000002 -0.000000 -0.000001 0.000002 -0.000000 -61.220331 10.907927 -24.623296 105.577028 0.106639 -0.857208 -26.374497 -8.223390 27.403632 -0.000000 -0.000000 -0.000000 -0.000000 -0.000000 -0.000000 -0.000002 -0.000003 -0.000001 3.959322 3.639705 -2.152578 8.075129 6.853910 -4.612896 8.075135 6.853919 -4.612901 -3.925085 28.376649 6.958248 6.143551 35.639582 -22.329750 -0.000001 -0.000000 -0.000000 -0.000001 -0.000000 -0.000000 -0.000001 -0.000000 -0.000000 0.985481 -15.558947 -11.899327 3.003085 -0.913857 -31.997046 40.016535 -32.998242 -2.122011 12.751312 10.346653 2.756615 -10.173253 -9.651254 9.009507 2.321124 6.714508 2.170927 -0.000003 -0.000000 0.000001 -0.838444 -6.669860 -6.406892 -0.126835 0.207657 -21.714391 -0.000003 -0.000001 -0.000004 1.294497 -1.112936 -9.320135 -0.178458 -0.773441 -14.430107 0.000001 0.000000 -0.000002 -0.562659 2.847229 -6.298614 -0.505470 -2.597485 -30.199507 -0.000000 0.000002 -0.000002 -0.247937 5.893324 -1.052752 -0.699249 -5.770478 -39.699313 0.000002 -0.000000 -0.000002 0.000002 -0.000000 0.000000 3.306606 -18.371392 12.069629 12.769770 -13.150460 60.289212 30.289949 39.220288 -4.043916 19.162111 -1.502716 11.706715 -7.056310 1.818820 -10.263620 -0.642357 -0.093879 -1.289340 0.000000 0.000004 0.000004 -3.152909 2.648913 5.393181 0.120536 -1.119646 16.859799 -0.000005 -0.000001 0.000002 0.125412 -1.270053 1.027012 -0.357885 1.142257 22.116007 0.000000 0.000000 -0.000000 1.946790 0.243272 1.017466 -0.619904 3.110105 28.344740 -0.000002 0.000000 0.000000 4.838704 -1.853952 -3.961037 -1.320422 7.677250 37.620190 -0.000001 -0.000001 0.000002 0.000001 -0.000000 0.000001 -0.000001 -0.000001 0.000002 -0.000001 -0.000001 0.000002 -0.000001 -0.000001 0.000002 -0.000001 -0.000001 0.000002 -0.000001 -0.000001 0.000001 -0.000001 0.000002 0.000001 -0.000001 -0.000001 0.000002 -0.000001 -0.000001 0.000001 -0.000001 0.000002 0.000001 0.000000 0.000000 -0.000001 0.000000 0.000000 -0.000001 -0.000000 0.000000 0.000001 
